# xmcd
#
# Track frame offsets:
#	150
#	18805
#	35057
#	54337
#	74127
#	86667
#	118935
#	132667
#	149860
#	166110
#	180737
#	198727
#	211225
#
# Disc length: 3473 seconds
#
# Revision: 1
# Processed by: cddbd v1.4PL0 Copyright (c) Steve Scherf et al.
# Submitted via: EasyCDDAExtractor 6.0.0.1
#
DISCID=ce0d8f0d
DTITLE=Bronco - Bronco en la Plaza México Vol.II
DYEAR=1993
DGENRE=Norteña
TTITLE0=Te quise una vez
TTITLE1=Déjame amarte otra vez
TTITLE2=Tres heridas
TTITLE3=Amigo bronco
TTITLE4=Aquí no'mas
TTITLE5=Un fin de semana - Espinas
TTITLE6=Con zapatos de tacón
TTITLE7=Para que vuelvas
TTITLE8=Mi doctora favorita
TTITLE9=No tengo más que una canción
TTITLE10=Muérdeme
TTITLE11=El sheriff de chocolate
TTITLE12=Atrapado - La última copa - Adoro - Sergio el bailador
EXTD=
EXTT0=
EXTT1=
EXTT2=
EXTT3=
EXTT4=
EXTT5=
EXTT6=
EXTT7=
EXTT8=
EXTT9=
EXTT10=
EXTT11=
EXTT12=
PLAYORDER=
